/* XPM */
static char *pixil_frame_0__2_1689502624[] = {
/* columns rows colors chars-per-pixel */
"32 32 5 1 ",
"  c None",
". c black",
"X c #ED1C24",
"o c #FF7E00",
"O c #FFC20E",
/* pixels */
"                                ",
"                                ",
"                                ",
"                                ",
"                                ",
"                                ",
"                                ",
"               .....            ",
"             ..ooooo..          ",
"           ..oooOOOOOO..        ",
"          .oooOOOOOOOOOO.       ",
"          .oOOXOXOOOXOXO.       ",
"         .ooOOOXOOOOOXOOO.      ",
"         .oOOOXOXOOOXOXOO.      ",
"        .ooOOOOOOOOOOOOOOO.     ",
"        .oOOOOOOOOOOOOOOOO.     ",
"        .oOOOOOOOOOOOOOOOO.     ",
"        .oOOOOOOOOOOOOOOOO.     ",
"        .ooOOOOOOOOOOOOOOO.     ",
"         .oOOOXOXOOOXOXOO.      ",
"         .ooOOOXOOOOOXOOO.      ",
"          .oOOXOXOOOXOXO.       ",
"          .oooOOOOOOOOOO.       ",
"           ..ooOOOOOOO..        ",
"             ..ooooo..          ",
"               .....            ",
"                                ",
"                                ",
"                                ",
"                                ",
"                                ",
"                                "
};
