/* XPM */
static char *attack_side1689243901[] = {
/* columns rows colors chars-per-pixel */
"22 30 14 1 ",
"  c black",
". c #005B5B",
"X c #883000",
"o c #805018",
"O c #B05000",
"+ c #B07830",
"@ c #D06800",
"# c #F8D800",
"$ c #E0A040",
"% c #F0C070",
"& c #104888",
"* c #3068B8",
"= c gray69",
"- c #F8F8F8",
/* pixels */
"...........+....+++...",
"...........++..+$#+...",
"..........+-+.+$#-+...",
".......+..+-$+$#-#+...",
".......+++$#++$##$+...",
".......+-+$+$+$$$+++++",
".......+-$+$-++++$-$+.",
".......+-#+-#++#$+$+..",
".......++#$-#+$-+#++..",
"......+-++##$+#$+$#$++",
"......+#++ooo$o+o$$++.",
".......++o&=+++$+o++..",
".......+$%*-%++$+o$++.",
"........+$&-%$+ooo++++",
".........+$%$ooo+.....",
"++++&&++o+o&&&OX......",
"+%%$*&%$+%$&*&OOX.....",
"+$+$=-=$++$+*&&OXo....",
".+oo&&=-----==&OX+o...",
".........==------=-=..",
"..........&&&& &+o....",
"..........&&OOOXX.....",
"..........&&&&&&@X....",
"..........OO&& @@@X...",
"..........OOXXXO@OX...",
".........XOXXXXX&XX&..",
"........X&&&&  &O*&&..",
".......       XO&*&...",
"........      O&&&  ..",
"..........        ...."
};
