/* XPM */
static char *attack_down1689243901[] = {
/* columns rows colors chars-per-pixel */
"17 30 16 1 ",
"  c black",
". c #005B5B",
"X c #606060",
"o c #883000",
"O c #805018",
"+ c #B05000",
"@ c #B07830",
"# c #D06800",
"$ c #E08800",
"% c #F8D800",
"& c #E0A040",
"* c #F0C070",
"= c #104888",
"- c #3068B8",
"; c gray69",
": c #F8F8F8",
/* pixels */
".......@.........",
".......@@...@....",
"......@&&@@@@....",
"...@..@:%&@&@....",
"...@@@%:@%@%@.@..",
"...@&@%&@&@%@@@..",
".@.@%@&@&@@&@&@..",
".@@&:%@&%&@@&&@@.",
".@@%::@%:&@%:@&@.",
".@&&%:&&:&:%&@%@.",
".@&@&:%@%@%&@@&@.",
"..@O@%&&@&@&@O@O.",
"..@*@OOO&OOO@&O..",
"..@&@*:-O-:&O@O..",
".;.@O&:=*=:&OO==.",
".;...@&**&@O===..",
".:.==#@@@OOoo=+O.",
"::=--=$#=-=X+oO..",
"::@=-X###=XX+oO..",
"::@&==-=-====+OO.",
"::@*&-#-==+#o@@O.",
".:;@@===o===oOO..",
".:;*&+#+o+#+o....",
"..:-==#+o==oo....",
"..=-==+o= == ....",
".@**&@O==     ...",
".@*&&OO==      ..",
"..@OOO-=      ...",
"....=o==     ....",
"................."
};
