/* XPM */
static char *idle_back1689243902[] = {
/* columns rows colors chars-per-pixel */
"15 32 16 1 ",
"  c black",
". c #005B5B",
"X c #606060",
"o c #883000",
"O c #805018",
"+ c #B05000",
"@ c #B07830",
"# c #D06800",
"$ c #E08800",
"% c #F8D800",
"& c #E0A040",
"* c #F0C070",
"= c #104888",
"- c #3068B8",
"; c gray69",
": c #F8F8F8",
/* pixels */
"...@..@@.......",
"...@@.@%@......",
"...@&@&:&@@....",
".@.@%@:%%&@@...",
".@@@:@%@&%@&@..",
".@&@&&@&@&&%&@.",
".@:&@&@:&@&:%@.",
"@&@%&@%:%@&:%@@",
"@%@&@&::%&@%&@@",
"@:&@@&:%%&@&@%O",
"@&%&@@%%&@@@&&O",
"@&:%@&@&@&@@%O.",
".@&%@&:@%&O&@O.",
"..O&&@%@&@OOO..",
"...OOO&%@OOO...",
"===++oOOOoo===.",
"=-+##o X o+o==O",
"O=++$ ;XX #o=@O",
"O*++## ; o+o@OO",
"O&@==----==o@&O",
"=-=+==--==+=-==",
"=-=++####++====",
"O*&+#$#+##+=O@O",
"O&@+#$$o#$#o@&O",
".OO+###o###oOO.",
"...++#+o+#+o...",
"...=+oo=ooo=...",
"...==o===o==...",
".. =-o==-+== ..",
".   =o==-+==  .",
"..      =o=  ..",
"...         ..."
};
