/* XPM */
static char *idle_side1689243903[] = {
/* columns rows colors chars-per-pixel */
"16 32 15 1 ",
"  c black",
". c #005B5B",
"X c #883000",
"o c #805018",
"O c #B05000",
"+ c #B07830",
"@ c #D06800",
"# c #E08800",
"$ c #F8D800",
"% c #E0A040",
"& c #F0C070",
"* c #104888",
"= c #3068B8",
"- c gray69",
"; c #F8F8F8",
/* pixels */
".......+....+++.",
"......++..++%%+.",
".....+;+++%;$+..",
"..+.+;$+%$;$%+++",
"..++%$+++$$%+$+.",
".+;+%+%$+%%+$%+.",
".+;%+%;%+++%;+..",
".+;$+;;++$+$%+++",
".++$%;$+%;+$+$$+",
"+;++$$%+$$+%$%+.",
"+$++ooo%o+o%%+..",
".++&*-+++%+o++++",
".+%&=;&++%+o%++.",
"..+%*;&%+ooo+...",
"...+%&%ooo+.....",
"....oooXXX......",
"....O@****X.....",
"...O#*===**.....",
"...O#@+%+oX.....",
"...*=*++oo......",
"..o***+%+o......",
"..o**@=***......",
"...**++**X......",
"...*+&%+oX......",
"...*++%+oX......",
"....X+ooOOX.....",
"....XXXO@@X.....",
"... XOXXXX......",
".  X**O=** .....",
"    XO*=**  ....",
".   O***** .....",
"...       ......"
};
