/* XPM */
static char *move_side1689243904[] = {
/* columns rows colors chars-per-pixel */
"31 19 14 1 ",
"  c #005B5B",
". c #883000",
"X c #805018",
"o c #B05000",
"O c #B07830",
"+ c #D06800",
"@ c #E08800",
"# c #F8D800",
"$ c #E0A040",
"% c #F0C070",
"& c #104888",
"* c #3068B8",
"= c gray69",
"- c #F8F8F8",
/* pixels */
"            =                  ",
"          =O  ==OOO=           ",
"         =OO==OO$$O=           ",
"      = =O-OOO$-#O==           ",
"     =O=O-#O$#-#$OOO           ",
"     =OO$#OOO##$O#O==          ",
"    =O-O$O$#O$$O#$O==          ",
"    =O#$O$-$OOO$-O==           ",
"    =O##O--OO#O#$OOO           ",
"    =OO#$-#O$-O#O##O           ",
"   =O-OO##$O##O$#$O=           ",
"   =O#OOXXX$XOX$$O====....&&== ",
"=XXXXOO%&=OOO$OXOOOO..oooo.&&= ",
"=X$$&O$%*-%OO$OX$OO&.......&&==",
"=OOOO&&OOXOO&&.oo@&&o+++@+.&&&=",
"=O%%$*&%$O%$&*&o+@&&+@@@+o.***&",
" O$O$*&O$OO$O*&&o@&&o+@@o..oo&&",
"  OXX&&XXXXXXX&&..*&.....===.o&",
"   ===============&&&&==       "
};
