/* XPM */
static char *move_up1689243904[] = {
/* columns rows colors chars-per-pixel */
"15 26 14 1 ",
"  c black",
". c #005B5B",
"X c #606060",
"o c #883000",
"O c #805018",
"+ c #B05000",
"@ c #B07830",
"# c #D06800",
"$ c #F8D800",
"% c #E0A040",
"& c #104888",
"* c #3068B8",
"= c gray69",
"- c #F8F8F8",
/* pixels */
"...@=.@@=......",
"..=@@=@$@==....",
".==@%@%-%@@=...",
".@=@$@-$$%@@=..",
"=@@@-@$@%$@%@=.",
"=@%@%%@%@%%$%@=",
"=@-%@%@-%@%-$@=",
"@%@$%@$-$@%-$@@",
"@$@%@%--$%@$%@@",
"@-%@@%-$$%@%@$O",
"@%$%@@$$%@@@%%O",
"@%-$@%@%@%@@$O=",
"=@%$@%-@$%O%@O=",
"=OO%%@$@%@OOOO=",
"=O@OOO%$@OOO&O=",
".O%&+oOOO+o&&O.",
".O@&oo   o+&O=.",
"..Oo# = X #o=..",
"..=&&****&&&=..",
"..=O&&###&&o=..",
"..=&**&o&**&==.",
"..&**&&&&*&&&=.",
"..&*&&&o&&&&&=.",
"..&&&&===&&&&=.",
"..=&&==..=&&=..",
"...==.....==..."
};
