/* XPM */
static char *move_down1689243903[] = {
/* columns rows colors chars-per-pixel */
"16 23 11 1 ",
"  c #005B5B",
". c #883000",
"X c #805018",
"o c #B07830",
"O c #F8D800",
"+ c #E0A040",
"@ c #F0C070",
"# c #104888",
"$ c #3068B8",
"% c gray69",
"& c #F8F8F8",
/* pixels */
"     ###%%##%   ",
"  %%#$$#oo$$o%  ",
"   %#$#o+o$oo#  ",
"  %%##oO&oo+o#% ",
"  % ooO&oOoOo#o ",
"  %o+oO+o+oOooo%",
" %%oO+oo+oo+o+o%",
" %o+&Oo+O+oo++o%",
"%ooO&&oO&+oO&o+o",
"%oo+O&++&+&O+oOo",
"%oOo+&OoOoO+oo+o",
"%o+XoO++o+o+oXoX",
" oo@oX%#X#%Xo+X%",
" %o+o@&$+$&+XoX ",
" %%oX+&#@#&oXX% ",
" %XoXo+@@+oX##X%",
" Xo@o.oooXX.o+oX",
" X$$##%##%%X#$#X",
"Xo+oo#% #%Xo+@+X",
"X+@+oX%  %Xo@+oX",
"%X@+X%    %X+oXX",
" %XX%     %%XXX%",
"  %%        %   "
};
