/* XPM */
static char *_8a772227140448f86b56acca679bc66T3clpOYekNGhnAFB[] = {
/* columns rows colors chars-per-pixel */
"32 32 4 1 ",
"  c None",
". c black",
"X c #00B7EF",
"o c white",
/* pixels */
"                                ",
"            .......             ",
"         ...ooooooo...          ",
"        .ooooooooooooo.         ",
"      ..ooooooooooooooo..       ",
"     .ooooooooooooooooooo.      ",
"    .ooooooooooooooooooooo.     ",
"    .oooooo..........ooooo.     ",
"   .ooooooo.oooooooo.oooooo.    ",
"  .oooooooo.oooooooo..oooooo.   ",
"  .oooooooo.ooooooooo..ooooo.   ",
"  .oooooooo..oooXXoooo.ooooo.   ",
" .oooooooooo.ooXXXXooo.oooooo.  ",
" .oooooooooo.ooXXXXooo.oooooo.  ",
" .oooooooooo..ooXXoooo.oooooo.  ",
" .ooooooooooo.oooooooo.oooooo.  ",
" .ooooooooooo.oooooooo.oooooo.  ",
" .ooooooooooo.oooooooo.oooooo.  ",
" .ooooooooooo.oooooooo.oooooo.  ",
"  .oooooooooo.oooooooo.ooooo.   ",
"  .oooooooooo.ooooooo..ooooo.   ",
"  .ooooooooo..oooooo..oooooo.   ",
"   .oooooooo.ooooooo.oooooo.    ",
"    .ooooooo.ooooooo.ooooo.     ",
"    .ooooo...oooooo..ooooo.     ",
"     .oooo.ooooooo..ooooo.      ",
"      ..o..ooooooo.oooo..       ",
"        ..ooooooo..ooo.         ",
"         ...ooooo.o...          ",
"            .......             ",
"                                ",
"                                "
};
