/* XPM */
static char *b13ef5c923634b7df928ec3c25715b8fv9X7C1pwIikK3p63[] = {
/* columns rows colors chars-per-pixel */
"32 32 2 1 ",
"  c black",
". c #ED9671",
/* pixels */
"... ........ ...............    ",
"    ....... ..............  ....",
"....   .... ............. ......",
".......  .. ............ .......",
"......... . ............ .......",
"..........   ........... .......",
"........  ... .......... .......",
"....... ......  ........ .......",
"...... . .......  ..... ........",
"....  ... ........   . .........",
"..  ...... ..........  .......  ",
"  . ....... ...........       ..",
".... .......  ......   ...... ..",
".... ........  ....  ...........",
".... .........  ... ............",
"..... ..........   .............",
"..... .........  .. ............",
"..... ........ ..... ...........",
"..... .......  ...... ..........",
"..... ...... . ....... .........",
"...... .... .. ........ ........",
"...... ..  ... ......... .......",
"...... .  ..... ....... ........",
"......   ...... ........ .......",
".....  ....... .......... ......",
"...  .. ...... ........... .....",
".. .... ...... ............ ....",
". ...... ..... ............. ...",
". ...... ..... .............. ..",
" ........ ....  .............. .",
"......... ..... .............. .",
"......... ...... .............. "
};
