/* XPM */
static char *_49b731337604746a12e5ce71fa4aad7KG6wC9rpNZKDovYz[] = {
/* columns rows colors chars-per-pixel */
"32 32 3 1 ",
"  c black",
". c #ED1C24",
"X c #9C5A3C",
/* pixels */
"................................",
"................................",
"................................",
"................................",
"................................",
"........    ...   .....    .....",
" . XX    XXX  . XX .    X X.    ",
".XXXX XXXXXX .XXXXX. XXXXXX.XXXX",
"XXXXX XXXXX X.XXXXX.X XXXX.XXXXX",
"XXXXX XXXXX .XXXXXX.X XXXX.XXXXX",
".XXX X XXXXX.XXXXXX.X XXXX.XXXXX",
"X.  XXX XXX.X XXXXX.X XXXXX.XXXX",
". XXXXXX X.X XXXXX.XXX XXX.XXXXX",
". XXXXXX .XXX XXXX.XXXX X.XXXXXX",
". XXXXXX. XX XXXXX.XXXXX.  XXXXX",
"X. XXX.. XXXX XXX.XXX  .XXX  XXX",
"...XXXX.XXXXX XX.XXXXX .XXXX  XX",
"XX .XX .XXXXXX  .XXXXX. XXXXX XX",
"X ..XXX.XXXXXXX. XXXX. XXXXXXX X",
" .X.XXXX.XXXXXX.X XX .XXXXXXXX X",
"XX. .XXX.XXXXXX. XX XX.XXXXXXX X",
"XXX..XXXX.XXXXX .X XXX.XXXXXXX X",
"XXXX.XXXX.XXXX X. XXXX....XXXX X",
"XXX.. XXX.XXXX .X XXXX.XXX..XXX ",
"XXXX.. XX.XXX X.XX XXX.XXXXX.XX ",
"X.... XXXX.XXX .XXX XX.XXXXXX. X",
".XXX.....X.XXXX.XXXX X.XXXXXX .X",
"XXXX.XX X.X.XX.XXXXXX .XXXXXX X.",
"XXX.XX XXX...X.XXXXXXX.XXXXX XXX",
"XXX.X  XXXX.X.X.XXXXXX.XXXXX XXX",
"XXX.X XXXXX.X.X.XXXXXX. XXXX XXX",
"XXX.X XXXXX.X.XXXXXXXXX.XXXX XXX"
};
