/* XPM */
static char *ae37ce6e434242bbdcd4e9729311c2abqq6C3waeNV2omIOh[] = {
/* columns rows colors chars-per-pixel */
"29 35 11 1 ",
"  c white",
". c #580078",
"X c #D880F8",
"o c #A820F8",
"O c #7820A8",
"+ c #7860A8",
"@ c #A8B8E0",
"# c #585858",
"$ c #F8F8F8",
"% c #78A0C8",
"& c black",
/* pixels */
"                             ",
"                             ",
"                             ",
"          ...                ",
"        ..XXo..              ",
"       .oXXoOO..             ",
"      .OOXoO..O..            ",
"      ...oX......            ",
"      +@+.OO..+@#            ",
"      +$$+...+@@#            ",
"      +$$$$$$$@@#            ",
"     +$++#@$@#+#@#           ",
"     +@+$+#@#+@#%#           ",
"      ++$$&$&$@##            ",
"        +$%@%@##             ",
"     ...++%$%#+...           ",
"    .OO@$+###+@@O..          ",
"    +@$%$$$@$$@%$%#          ",
"    +%%#%%.O.%%#%##          ",
"    +$# #@...@##$@##         ",
"    ..# #$+.+@# #%..         ",
"    .O%#+$$+$$+##$O.         ",
"    ..%#@$$@$$@##%..         ",
"    +%$@#@@#@@##$$+#         ",
"    +$@##$+#+$##+$#          ",
"     +##.+#+#+..###          ",
"       .O.###.O.@$#          ",
"      +.O+# #+O.#@%#         ",
"     +@$$@##@$$@##@#         ",
"    +$#$#@##$#@#%###         ",
"     # ###  ### # ##         ",
"                  #          ",
"                             ",
"                             ",
"                             "
};
