/* XPM */
static char *_a6ee69ed13a403dd2118f29bd6d246bxLfNCEX8Tsk0q6FY[] = {
/* columns rows colors chars-per-pixel */
"29 35 11 1 ",
"  c white",
". c #580078",
"X c #7820A8",
"o c #D880F8",
"O c #A820F8",
"+ c #7860A8",
"@ c #A8B8E0",
"# c #F8F8F8",
"$ c #585858",
"% c #78A0C8",
"& c #C0C0C0",
/* pixels */
"                             ",
"                             ",
"                             ",
"            ...              ",
"          ..Xoo..            ",
"         ..XXXOoX.           ",
"         .X...XOo.           ",
"        .......XOOX          ",
"        ...+@@+.XX.          ",
"        ..+####+..+          ",
"        $+@%@####@+          ",
"        $@+#+@+$+@+          ",
"         $@$#+#& $           ",
"         $@$#+## @+          ",
"          $@+@##@+$          ",
"           $+%@%+$           ",
"          $...$$             ",
"         $..XX.$             ",
"         $$%##%@$            ",
"         $$$%@+#$            ",
"         $$%#+$@.            ",
"          $.%+$..            ",
"          .X.@+.             ",
"         $...%$$             ",
"         $$%@##$             ",
"        $%$$@#$.             ",
"      $$@%$$$$..             ",
"     $@#@$$%..$              ",
"    $@#$$ $%X.$              ",
"    $@$   $%..$$$            ",
"     $$   $$##@#$            ",
"      $    $$#$%$            ",
"                             ",
"                             ",
"                             "
};
