/* XPM */
static char *d74828885ce14748b6aa5442a3efecd0myzPXiNZMpswfDtD[] = {
/* columns rows colors chars-per-pixel */
"26 35 12 1 ",
"  c white",
". c #580078",
"X c #A820F8",
"o c #D880F8",
"O c #7820A8",
"+ c #585858",
"@ c #A8B8E0",
"# c #7860A8",
"$ c #F8F8F8",
"% c #78A0C8",
"& c #C0C0C0",
"* c #909090",
/* pixels */
"                          ",
"                          ",
"                          ",
"                          ",
"                          ",
"          ...             ",
"        ..Xoo..           ",
"       ..OOXooX.          ",
"      ..O..OXoOO.         ",
"      ......oX...         ",
"      +@#..OO.#@#         ",
"      +@@#...#$$#         ",
"      +@@@$$$$$$#         ",
"     +@#@$$$$$$%$#        ",
"     +#+@$$$$$$#@#        ",
"      ++#@$$$$%##         ",
"     ...%+@$@%....        ",
"    ...@@$$$@$.OO..       ",
"    ..%$@$@$$$@.OO.       ",
"    +%+%%$%$%%+@..+       ",
"    .%++@$@$@++@$%+       ",
"    ..++$$$$$++@...       ",
"     ++%$$$$$%++.O.       ",
"      +%@$@$$@+$@..       ",
"       +%@%$%@++$@+       ",
"       ++%@$@$++++        ",
"       +++@$@%+           ",
"       +@%+$@+     +      ",
"      +@$$+@$%+  +++      ",
"      +@%%++@@%+++%+      ",
"      +@%@+ +%@$@%+       ",
"      ++++    ++++        ",
"                          ",
"                          ",
"&&*                       "
};
