/* XPM */
static char *_4c0a1aff35a47d783835d3547d26373Y3D3FbfQzVYmh3YA[] = {
/* columns rows colors chars-per-pixel */
"29 35 10 1 ",
"  c white",
". c #580078",
"X c #D880F8",
"o c #A820F8",
"O c #7820A8",
"+ c #7860A8",
"@ c #A8B8E0",
"# c #585858",
"$ c #F8F8F8",
"% c #78A0C8",
/* pixels */
"                             ",
"                             ",
"                             ",
"                             ",
"          ...                ",
"        ..XXo..              ",
"       .oXXoOO..             ",
"      .OOXoO..O..            ",
"      ...oX......            ",
"      +@+.OO..+@#            ",
"      +$$+...+@@#            ",
"      +$$$$$$$@@#            ",
"     +$++#@$@#+#@#           ",
"     +@+$+#@#+@#%#           ",
"     +++$$ $ $@##            ",
"        +$%@%@##             ",
"     ...++%$%#+...           ",
"    .OO@$+###+@@O..          ",
"    +@$%$$$@$$@%$%#          ",
"    +%%#%%.O.%%#%##          ",
"    +$# #@...@##$@##         ",
"    ..# #$+.+@# #+..         ",
"    .+%#+$$+$$+#+%+.         ",
"    .%$@#$$@$$@#$$+#         ",
"    +$@##@@#@@##+$#          ",
"     +##+$+#@$# ###          ",
"        .+##+$@#             ",
"       .O.###@+#             ",
"      +.O+#  ##              ",
"     +@$$@#                  ",
"    +$#$#@#                  ",
"     # ###                   ",
"                             ",
"                             ",
"                             "
};
